<?xml version="1.0" encoding="utf-8"?>
<svg width="10px" height="6px" viewBox="0 0 10 6" version="1.1" xmlns:xlink="http://www.w3.org/1999/xlink" xmlns="http://www.w3.org/2000/svg">
  <g id="noun_Arrow_1256496" transform="matrix(-4.371139E-08 -1 1 -4.371139E-08 4.7683716E-07 5.6417236)">
    <path d="M5.4437 0.187703C5.32366 0.0675262 5.16077 0 4.9909 0C4.82104 0 4.65815 0.0675262 4.5381 0.187703L0.187703 4.5349C0.0675261 4.65495 0 4.81784 0 4.9877C0 5.15757 0.0675261 5.32046 0.187703 5.4405L4.5381 9.7877C4.69843 9.95616 4.93752 10.0244 5.16261 9.96591C5.38769 9.90744 5.56334 9.73148 5.62142 9.50629C5.67949 9.2811 5.61084 9.04213 5.4421 8.8821L1.5445 4.9877L5.4421 1.0933C5.56249 0.973472 5.63031 0.810697 5.63061 0.640835C5.63091 0.470973 5.56367 0.307959 5.4437 0.187703Z" transform="translate(0 2.861023E-06)" id="Path" fill="#2C2E3F" stroke="none" />
  </g>
</svg>