<?xml version="1.0" encoding="utf-8"?>
<svg width="10px" height="10px" viewBox="0 0 10 10" version="1.1" xmlns:xlink="http://www.w3.org/1999/xlink" xmlns="http://www.w3.org/2000/svg">
  <path d="M5 0C2.24211 0 0 2.24211 0 5C0 7.75789 2.24211 10 5 10C7.75789 10 10 7.75789 10 5C10 2.24211 7.75789 0 5 0ZM7.46316 6.71579C7.53684 6.78947 7.53684 6.89474 7.46316 6.96842L6.95789 7.47368C6.88421 7.54737 6.77895 7.54737 6.70526 7.47368L5 5.75789L3.28421 7.46316C3.21053 7.53684 3.10526 7.53684 3.03158 7.46316L2.52632 6.95789C2.45263 6.88421 2.45263 6.77895 2.52632 6.70526L4.24211 5L2.53684 3.28421C2.46316 3.21053 2.46316 3.10526 2.53684 3.03158L3.04211 2.52632C3.11579 2.45263 3.22105 2.45263 3.29474 2.52632L5 4.24211L6.71579 2.52632C6.78947 2.45263 6.89474 2.45263 6.96842 2.52632L7.47368 3.03158C7.54737 3.10526 7.54737 3.21053 7.47368 3.28421L5.75789 5L7.46316 6.71579Z" id="Shape" fill="#000000" stroke="none" />
</svg>