<?xml version="1.0" encoding="UTF-8"?>
<svg width="36px" height="51px" viewBox="0 0 36 51" version="1.1" xmlns="http://www.w3.org/2000/svg" xmlns:xlink="http://www.w3.org/1999/xlink">
    <title>noun_Paper_149897</title>
    <g id="Web" stroke="none" stroke-width="1" fill="none" fill-rule="evenodd">
        <g id="Solicitar-préstamo-3" transform="translate(-562.000000, -395.000000)" fill="#000000" fill-rule="nonzero">
            <g id="Group-2" transform="translate(280.000000, 139.000000)">
                <g id="Group" transform="translate(110.000000, 256.000000)">
                    <g id="noun_Paper_149897" transform="translate(172.000000, 1.000000)">
                        <path d="M35.28,0 L0.56,0 C0.25088,0 0,0.25088 0,0.56 L0,48.72 C0,49.02912 0.25088,49.28 0.56,49.28 L35.28,49.28 C35.58912,49.28 35.84,49.02912 35.84,48.72 L35.84,0.56 C35.84,0.25088 35.58912,0 35.28,0 Z M34.72,48.16 L1.12,48.16 L1.12,1.12 L34.72,1.12 L34.72,48.16 Z" id="Shape"></path>
                        <path d="M31.36,11.2 L4.48,11.2 L4.48,22.4 L31.36,22.4 L31.36,11.2 Z M30.8,21.84 L5.04,21.84 L5.04,11.76 L30.8,11.76 L30.8,21.84 Z" id="Shape"></path>
                        <rect id="Rectangle" x="6.72" y="13.16" width="17.92" height="1"></rect>
                        <rect id="Rectangle" x="6.72" y="15.4" width="11.2" height="1"></rect>
                        <rect id="Rectangle" x="6.72" y="17.64" width="20.16" height="1"></rect>
                        <rect id="Rectangle" x="6.72" y="19.88" width="13.44" height="1"></rect>
                        <path d="M22.68,44.8 L31.36,44.8 L31.36,40.6 L31.36,40.04 L31.36,24.64 L22.68,24.64 L22.12,24.64 L4.48,24.64 L4.48,40.04 L4.48,40.6 L4.48,44.8 L22.12,44.8 L22.68,44.8 Z M30.8,44.24 L22.68,44.24 L22.68,40.6 L30.8,40.6 L30.8,44.24 Z M30.8,25.2 L30.8,40.04 L22.68,40.04 L22.68,25.2 L30.8,25.2 Z M5.04,25.2 L22.12,25.2 L22.12,40.04 L5.04,40.04 L5.04,25.2 Z M5.04,44.24 L5.04,40.6 L22.12,40.6 L22.12,44.24 L5.04,44.24 Z" id="Shape"></path>
                        <rect id="Rectangle" x="24.64" y="28.56" width="4.48" height="1.12"></rect>
                        <rect id="Rectangle" x="24.64" y="42" width="4.48" height="1.12"></rect>
                        <rect id="Rectangle" x="6.72" y="28.56" width="13.44" height="1.12"></rect>
                        <rect id="Rectangle" x="4.48" y="3.92" width="13.44" height="1.12"></rect>
                        <rect id="Rectangle" x="4.48" y="6.44" width="20.16" height="1"></rect>
                        <rect id="Rectangle" x="6.72" y="31.08" width="8.96" height="1"></rect>
                        <rect id="Rectangle" x="6.72" y="35.56" width="4.48" height="1"></rect>
                        <rect id="Rectangle" x="6.72" y="33.32" width="11.2" height="1"></rect>
                        <rect id="Rectangle" x="6.72" y="42.28" width="6.72" height="1"></rect>
                    </g>
                </g>
            </g>
        </g>
    </g>
</svg>