<?xml version="1.0" encoding="UTF-8"?>
<svg width="51px" height="51px" viewBox="0 0 51 51" version="1.1" xmlns="http://www.w3.org/2000/svg" xmlns:xlink="http://www.w3.org/1999/xlink">
    <title>Group</title>
    <g id="Web" stroke="none" stroke-width="1" fill="none" fill-rule="evenodd">
        <g id="Solicitar-préstamo-8" transform="translate(-477.000000, -234.000000)">
            <g id="Group" transform="translate(478.000000, 235.000000)">
                <circle id="bg" stroke="#FF4759" stroke-width="1.608768" cx="24.2136" cy="24.2136" r="24.2136"></circle>
                <g transform="translate(10.800000, 16.800000)" fill="#FF4759" fill-rule="nonzero" id="Shape">
                    <path d="M13.3355377,0 C4.92130216,0 0.837742672,5.93335706 0.446774167,6.51991214 C-0.148924722,7.4136385 -0.148924722,8.58577387 0.446774167,9.47948333 C0.837742672,10.0660384 4.92130216,15.9993955 13.3355377,15.9993955 C21.7497741,15.9993955 25.8298574,10.0660553 26.2208284,9.47948333 C26.8165278,8.58577387 26.8165278,7.4136385 26.2208284,6.51991214 C25.8298574,5.93335706 21.7497741,0 13.3355377,0 Z M13.3355377,1.77886809 C16.7829401,1.77886809 19.5568014,4.5527383 19.5568014,8.00013179 C19.5568014,11.4475253 16.782933,14.2239998 13.3355377,14.2239998 C9.88814154,14.2239998 7.11080156,11.4475253 7.11080156,8.00013179 C7.11080156,4.5527383 9.8881362,1.77886809 13.3355377,1.77886809 Z M6.92501434,3.2382518 C5.93212715,4.57094635 5.33627135,6.21571812 5.33627402,8.00013179 C5.33627535,9.78603187 5.93236184,11.43221 6.92675056,12.7654842 C3.73231979,11.1792184 2.14878403,8.825126 1.92699391,8.49238086 C1.72652099,8.19161039 1.72652099,7.80865319 1.92699391,7.50788272 C2.14873584,7.1752207 3.73198153,4.82353792 6.92501434,3.2382518 Z M19.7469292,3.2382518 C22.939722,4.82353614 24.523219,7.17523315 24.7449498,7.50788272 C24.9454242,7.80865319 24.9454242,8.19161039 24.7449498,8.49238086 C24.5231545,8.825138 22.938985,11.1792171 19.7443248,12.7654842 C20.7388042,11.4321749 21.3356682,9.78612166 21.3356695,8.00013179 C21.3356722,6.21581591 20.7397181,4.57090812 19.7469292,3.2382518 Z M13.3355377,3.55079086 C12.852185,3.56143734 12.4659035,3.95632093 12.4659035,4.43979085 C12.4659035,4.92326077 12.852185,5.31814436 13.3355377,5.32879084 C14.6612736,5.32909354 16.0065711,6.67439322 16.0068787,8.00013179 C16.007184,9.32623974 14.6611118,10.6737748 13.3355377,10.6740771 C12.0096009,10.6743793 10.6612853,9.32608861 10.6615924,8.00013179 C10.6615924,7.50891093 10.2633792,7.11069775 9.77215838,7.11069775 C9.28093752,7.11069775 8.88272422,7.50891093 8.88272422,8.00013179 C8.88216782,10.405371 10.9303056,12.4535163 13.3355377,12.4529453 C15.7400369,12.4524078 17.785436,10.4041109 17.7848787,8.00013179 C17.7843226,5.59690879 15.7387758,3.5513287 13.3355377,3.55079086 Z"></path>
                </g>
            </g>
        </g>
    </g>
</svg>