<?xml version="1.0" encoding="utf-8"?>
<svg width="33px" height="33px" viewbox="0 0 33 33" version="1.1" xmlns:xlink="http://www.w3.org/1999/xlink" xmlns="http://www.w3.org/2000/svg">
  <g id="Recurso-1">
    <path d="M32.8 16.5002C32.8 7.3874 25.4575 0 16.4 0C7.34252 0 0 7.3874 0 16.5002C0 24.7358 5.99721 31.5622 13.8375 32.8L13.8375 21.2698L9.67344 21.2698L9.67344 16.5002L13.8375 16.5002L13.8375 12.865C13.8375 8.72965 16.286 6.4454 20.032 6.4454C21.8258 6.4454 23.7031 6.76767 23.7031 6.76767L23.7031 10.8283L21.6352 10.8283C19.598 10.8283 18.9625 12.1003 18.9625 13.4064L18.9625 16.5002L23.5109 16.5002L22.7838 21.2698L18.9625 21.2698L18.9625 32.8C26.8028 31.5622 32.8 24.7358 32.8 16.5002Z" id="Path" fill="#272A3D" stroke="none" />
    <path d="M12.7089 15.1845L13.4137 10.299L9.00457 10.299L9.00457 7.1301C9.00457 5.79353 9.6206 4.48932 11.5954 4.48932L13.6 4.48932L13.6 0.330097C13.6 0.330097 11.7808 0 10.0413 0C6.41001 0 4.03653 2.33973 4.03653 6.57553L4.03653 10.299L0 10.299L0 15.1845L4.03653 15.1845L4.03653 26.9947C5.68253 27.2684 7.35856 27.2684 9.00457 26.9947L9.00457 15.1845L12.7089 15.1845Z" transform="translate(10.399994 5.5999756)" id="Path" fill="#FFFFFF" stroke="none" />
  </g>
</svg>