<?xml version="1.0" encoding="UTF-8"?>
<svg width="22px" height="23px" viewBox="0 0 22 23" version="1.1" xmlns="http://www.w3.org/2000/svg" xmlns:xlink="http://www.w3.org/1999/xlink">
    <title>noun_FAQ_170995</title>
    <g id="Web" stroke="none" stroke-width="1" fill="none" fill-rule="evenodd">
        <g id="Inicio---MB-sin-KYC" transform="translate(-51.000000, -555.000000)" fill="#000000" fill-rule="nonzero">
            <g id="Group-2" transform="translate(25.000000, 528.000000)">
                <g id="noun_FAQ_170995" transform="translate(26.000000, 27.000000)">
                    <path d="M21.43232,4.7151104 C21.43232,2.2751232 19.28192,0.2967552 16.62976,0.2967552 L4.87424,0.2967552 C2.22208,0.2967552 0.07168,2.2751232 0.07168,4.7151104 L0.07168,13.3210112 C0.07168,15.497216 1.792,17.31072 4.04992,17.6734208 L4.04992,21.3993472 C4.04992,21.6631296 4.22912,21.926912 4.48,22.0588032 C4.58752,22.1247488 4.73088,22.1247488 4.8384,22.1247488 C5.0176,22.1247488 5.16096,22.091776 5.30432,21.9928576 L7.7056,20.3771904 C10.32192,18.629632 13.40416,17.7063936 16.62976,17.7063936 C19.28192,17.7063936 21.43232,15.7280256 21.43232,13.2880384 L21.43232,4.7151104 L21.43232,4.7151104 Z M19.85536,13.3210112 C19.85536,14.9366784 18.42176,16.2555904 16.6656,16.2555904 C13.11744,16.2555904 9.71264,17.2777472 6.8096,19.1901696 L5.66272,19.948544 L5.66272,16.980992 C5.66272,16.5853184 5.30432,16.2555904 4.87424,16.2555904 C3.11808,16.2555904 1.68448,14.9366784 1.68448,13.3210112 L1.68448,4.7151104 C1.68448,3.0994432 3.11808,1.7805312 4.87424,1.7805312 L16.6656,1.7805312 C18.42176,1.7805312 19.85536,3.0994432 19.85536,4.7151104 L19.85536,13.3210112 Z" id="Shape"></path>
                    <path d="M10.752,4.94592 C9.42592,4.94592 8.13568,5.7372672 8.13568,7.254016 C8.13568,7.6496896 8.49408,7.9794176 8.92416,7.9794176 C9.35424,7.9794176 9.71264,7.6496896 9.71264,7.254016 C9.71264,6.4626688 10.64448,6.429696 10.752,6.429696 C10.85952,6.429696 11.79136,6.4626688 11.79136,7.254016 L11.79136,7.41888 C11.79136,7.748608 11.61216,8.0123904 11.2896,8.1772544 L10.5728,8.5399552 C10.17856,8.737792 9.96352,9.1004928 9.96352,9.4961664 L9.96352,10.0896768 C9.96352,10.4853504 10.32192,10.8150784 10.752,10.8150784 C11.18208,10.8150784 11.54048,10.4853504 11.54048,10.0896768 L11.54048,9.726976 L12.04224,9.4961664 C12.86656,9.1004928 13.36832,8.3091456 13.36832,7.4518528 L13.36832,7.254016 C13.36832,5.7372672 12.04224,4.94592 10.752,4.94592 Z" id="Path"></path>
                    <path d="M10.752,11.6393984 C9.46176,11.6393984 9.46176,13.4858752 10.752,13.4858752 C12.04224,13.4858752 12.04224,11.6393984 10.752,11.6393984 Z" id="Path"></path>
                </g>
            </g>
        </g>
    </g>
</svg>