<?xml version="1.0" encoding="utf-8"?>
<svg width="46px" height="18px" viewbox="0 0 46 18" version="1.1" xmlns:xlink="http://www.w3.org/1999/xlink" xmlns="http://www.w3.org/2000/svg">
  <path d="M20.1567 15.4355L1.82535 7.63775Q1.69845 7.58377 1.57703 7.51836Q1.45561 7.45296 1.34071 7.37669Q1.22581 7.30042 1.11839 7.21393Q1.01098 7.12743 0.91195 7.03145Q0.812925 6.93546 0.723127 6.83079Q0.633329 6.72612 0.553516 6.61365Q0.473704 6.50118 0.40455 6.38186Q0.335397 6.26254 0.277486 6.13737Q0.219575 6.01221 0.173396 5.88226Q0.127217 5.75231 0.0931594 5.61867Q0.0591017 5.48503 0.0374529 5.34883Q0.0158041 5.21263 0.00674684 5.07501Q-0.00231039 4.9374 0.00130044 4.79953Q0.00491128 4.66167 0.0211597 4.52472Q0.0374081 4.38777 0.066157 4.25289Q0.0949058 4.11801 0.135912 3.98633L0.721075 2.10735Q0.814549 1.8072 0.968234 1.53296Q1.12192 1.25872 1.32913 1.02231Q1.53634 0.785898 1.78808 0.597596Q2.03981 0.409295 2.32512 0.277288Q2.61043 0.145281 2.91691 0.0753079Q3.22339 0.00533492 3.53772 0.000437888Q3.85205 -0.00445914 4.16056 0.0559327Q4.46907 0.116324 4.75836 0.23938L22.3075 7.70444L39.8567 0.239343Q40.146 0.116288 40.4545 0.0558957Q40.763 -0.00449601 41.0774 0.000401157Q41.3917 0.00529832 41.6982 0.0752715Q42.0047 0.145245 42.29 0.277252Q42.5753 0.409259 42.827 0.597561Q43.0788 0.785862 43.286 1.02227Q43.4932 1.25868 43.6469 1.53292Q43.8005 1.80716 43.894 2.10731L44.4792 3.98629Q44.5202 4.11797 44.5489 4.25285Q44.5777 4.38773 44.5939 4.52468Q44.6102 4.66163 44.6138 4.7995Q44.6174 4.93736 44.6083 5.07498Q44.5993 5.21259 44.5776 5.34879Q44.556 5.48499 44.5219 5.61863Q44.4879 5.75227 44.4417 5.88222Q44.3955 6.01217 44.3376 6.13734Q44.2797 6.2625 44.2105 6.38182Q44.1414 6.50114 44.0616 6.61361Q43.9818 6.72608 43.892 6.83075Q43.8022 6.93542 43.7031 7.03141Q43.6041 7.1274 43.4967 7.21389Q43.3893 7.30038 43.2744 7.37665Q43.1595 7.45292 43.0381 7.51833Q42.9166 7.58373 42.7897 7.63771L24.4586 15.4354Q24.1378 15.7138 23.7524 15.8921Q23.4136 16.0489 23.0467 16.1178Q22.6798 16.1867 22.3073 16.1636Q21.9348 16.1866 21.5681 16.1177Q21.2014 16.0488 20.8627 15.8921Q20.4774 15.7138 20.1567 15.4355Z" transform="translate(0.5 0.5)" id="Combined-Shape" fill="#C2D1DB" fill-rule="evenodd" stroke="none" />
</svg>