<?xml version="1.0" encoding="utf-8"?>
<svg width="18px" height="18px" viewbox="0 0 18 18" version="1.1" xmlns:xlink="http://www.w3.org/1999/xlink" xmlns="http://www.w3.org/2000/svg">
  <g id="Group-6">
    <g id="Group-4">
      <path d="M9 18C13.9706 18 18 13.9706 18 9C18 4.02944 13.9706 0 9 0C4.02944 0 0 4.02944 0 9C0 13.9706 4.02944 18 9 18Z" id="Oval" fill="#000000" fill-rule="evenodd" stroke="none" />
      <g id="" fill="#FFFFFF" transform="translate(6 0)">
        <path d="M3.204 4.338Q4.488 4.338 5.262 5.01Q6.036 5.682 6.036 6.906Q6.036 8.034 5.298 8.664Q4.56 9.294 3.348 9.306L3.288 10.206L1.488 10.206L1.428 7.974L2.148 7.974Q3.072 7.974 3.558 7.746Q4.044 7.518 4.044 6.918Q4.044 6.498 3.816 6.258Q3.588 6.018 3.18 6.018Q2.748 6.018 2.508 6.264Q2.268 6.51 2.268 6.93L0.336 6.93Q0.312 6.198 0.642 5.61Q0.972 5.022 1.626 4.68Q2.28 4.338 3.204 4.338ZM2.412 13.326Q1.872 13.326 1.53 13.008Q1.188 12.69 1.188 12.222Q1.188 11.742 1.53 11.418Q1.872 11.094 2.412 11.094Q2.94 11.094 3.282 11.418Q3.624 11.742 3.624 12.222Q3.624 12.69 3.282 13.008Q2.94 13.326 2.412 13.326Z" />
      </g>
    </g>
  </g>
</svg>