<?xml version="1.0" encoding="UTF-8"?>
<svg width="56px" height="41px" viewBox="0 0 56 41" version="1.1" xmlns="http://www.w3.org/2000/svg" xmlns:xlink="http://www.w3.org/1999/xlink">
    <title>Group 16</title>
    <defs>
        <polygon id="path-1" points="0 0.0618105875 32.7608078 0.0618105875 41.0887735 0.0618105875 54.3677446 0.0618105875 54.3677446 39.2039865 0 39.2039865"></polygon>
    </defs>
    <g id="Web" stroke="none" stroke-width="1" fill="none" fill-rule="evenodd">
        <g id="Solicitar-préstamo-3" transform="translate(-407.000000, -403.000000)">
            <g id="Group-2" transform="translate(280.000000, 139.000000)">
                <g id="Group" transform="translate(110.000000, 257.000000)">
                    <g id="Group-16" transform="translate(18.000000, 8.000000)">
                        <g id="Group-3" transform="translate(0.000000, 0.019197)">
                            <mask id="mask-2" fill="white">
                                <use xlink:href="#path-1"></use>
                            </mask>
                            <g id="Clip-2"></g>
                            <path d="M27.2051865,1.4610618 C19.7905275,1.4610618 12.3757875,1.4594418 4.9611285,1.4621148 C2.8133325,1.4627628 1.3959135,2.8622808 1.3951035,4.9937148 C1.3913775,14.7621528 1.3907295,24.5305908 1.3955895,34.2988668 C1.3966425,36.3901248 2.8103355,37.8102978 4.8983535,37.8110268 C19.7547255,37.8155628 34.6110165,37.8155628 49.4673885,37.8110268 C51.5567835,37.8103788 52.9711245,36.3919878 52.9721775,34.3010538 C52.9771995,24.5191698 52.9801155,14.7372858 52.9592175,4.9554828 C52.9580025,4.4074368 52.8339105,3.8137878 52.5996585,3.3209028 C51.9652665,1.9861038 50.8026735,1.4613858 49.3684065,1.4613048 C41.9806395,1.4605754 34.5929535,1.4610618 27.2051865,1.4610618 M4.8401955,39.2018778 C3.0103245,39.2009058 1.5945255,38.4329448 0.6391305,36.8612208 C0.2099925,36.1550628 0.0136485,35.3740608 0.0063585,34.5525588 C-0.0053865,33.2323398 0.0027135,31.9119588 0.0027135,30.5915778 C0.0027135,22.0225878 -8.6172023e-06,13.4536788 0.0053055,4.8847698 C0.0064395,3.0557088 0.7669485,1.6058088 2.3752845,0.7161048 C2.9910465,0.3754998 3.7424025,0.2765178 4.4361675,0.0823608 C4.5741105,0.0437238 4.7311695,0.0714258 4.8794805,0.0714258 C19.7487315,0.0711828 34.6179825,0.0711828 49.4872335,0.0712638 C51.3325755,0.0712638 52.7639265,0.8264268 53.7288795,2.4133788 C54.1583415,3.1196988 54.3545235,3.9003768 54.3615705,4.7220408 C54.3729915,6.0422598 54.3650535,7.3626408 54.3651345,8.6830218 C54.3651345,17.2519308 54.3677446,25.8208398 54.3626235,34.3897488 C54.3614895,36.2191338 53.5802445,37.6315308 52.0030935,38.5775298 C51.2582175,39.0243258 50.4350145,39.2039865 49.5692865,39.2039865 C46.7787555,39.2026878 43.9883055,39.2033358 41.1977745,39.2034168 C36.5199435,39.2034168 31.8421125,39.2034168 27.1642815,39.2033358 C19.7228925,39.2033358 12.2815035,39.2055228 4.8401955,39.2018778 Z" id="Fill-1" fill="#000000" mask="url(#mask-2)"></path>
                        </g>
                        <path d="M7.6113675,28.0211238 L21.6893295,28.0211238 C21.6893295,27.4953528 21.6994545,26.9979318 21.6876285,26.5009968 C21.6313335,24.1331238 19.7637975,21.9781998 17.3992455,21.7796688 C15.6462435,21.6325728 13.8661065,21.6359748 12.1097025,21.7502658 C10.3567815,21.8643948 9.0445815,22.8236778 8.1873585,24.3771768 C7.5585555,25.5166038 7.5598515,26.7480468 7.6113675,28.0211238 M14.6519685,29.4537708 C12.1723965,29.4537708 9.6927435,29.4542561 7.2131715,29.4535278 C6.3916695,29.4533658 6.1656795,29.2512708 6.1969455,28.4248278 C6.2385795,27.3252528 6.2180865,26.2068858 6.4196955,25.1331498 C6.8613885,22.7811528 9.1402425,20.6398368 11.5350885,20.4145758 C13.3387965,20.2448808 15.1668045,20.2997178 16.9833915,20.3176998 C17.5769595,20.3236128 18.1937745,20.4566148 18.7569675,20.6542548 C21.4536195,21.6001728 23.0671395,23.8863168 23.1245685,26.7742908 C23.1363945,27.3667248 23.1315345,27.9595638 23.1252975,28.5521598 C23.1184935,29.2030758 22.8687705,29.4516648 22.2121035,29.4524748 C19.6921125,29.4555528 17.1720405,29.4536898 14.6519685,29.4537708" id="Fill-4" fill="#000000"></path>
                        <path d="M14.6430261,17.9062521 C16.4986551,17.9087598 17.9702631,16.4573208 17.9744843,14.6206458 C17.9786871,12.7744938 16.5283011,11.2891968 14.6999691,11.2672458 C12.8695311,11.2452948 11.3332851,12.7583748 11.3308521,14.5857348 C11.3284251,16.4143908 12.8140461,17.9038188 14.6430261,17.9062521 M19.37429,14.6000718 C19.3618431,17.2441548 17.2416681,19.3395438 14.6000151,19.3184028 C12.0255111,19.2978288 9.9043641,17.1485748 9.91686365,14.5734228 C9.9296361,11.9678958 12.0600171,9.8545248 14.6669211,9.86147363 C17.2874331,9.8685378 19.3865481,11.9815038 19.37429,14.6000718" id="Fill-6" fill="#000000"></path>
                        <path d="M38.1048219,15.1291557 C41.1516369,15.1291557 44.1984519,15.1292367 47.2452669,15.1291557 C47.7810819,15.1290747 48.1359429,15.4197837 48.1346504,15.8585607 C48.1334319,16.2804897 47.8000359,16.5499767 47.2604139,16.5501387 C41.1396489,16.5514347 35.0188839,16.5506247 28.8981189,16.5515157 C28.5723369,16.5515157 28.2359439,16.5029967 28.1184939,16.1730837 C28.0435689,15.9625647 28.0388709,15.6223647 28.1627199,15.4726767 C28.3165389,15.2867817 28.6351119,15.1449507 28.8836199,15.1432497 C31.9572459,15.1217037 35.0310339,15.1292367 38.1048219,15.1291557" id="Fill-8" fill="#000000"></path>
                        <path d="M38.0509569,20.3779395 C34.9932069,20.3774535 31.9354569,20.3771295 28.8776259,20.3777775 C28.3853079,20.3778585 28.0205649,20.0822895 28.0050939,19.6655445 C27.9897849,19.2518775 28.3481289,18.9469935 28.8589149,18.9468315 C35.0016309,18.9453735 41.1444279,18.9447255 47.2871439,18.9445635 C47.7861849,18.9445635 48.1377249,19.2485565 48.134987,19.6711335 C48.1322169,20.0826135 47.7648819,20.3789925 47.2647069,20.3788306 C44.1934299,20.3781015 41.1222339,20.3785065 38.0509569,20.3779395" id="Fill-10" fill="#000000"></path>
                        <path d="M38.0553471,12.7303974 C35.0628831,12.7303974 32.0703381,12.7303974 29.0778741,12.7303164 C28.9565361,12.7303164 28.8347121,12.7362294 28.7140221,12.7268334 C28.2972771,12.6944334 28.0158021,12.4168464 28.0058391,12.0356604 C27.9966051,11.6818524 28.3014081,11.3661144 28.7049501,11.3335524 C28.9191951,11.3162994 29.1360321,11.3306364 29.3517351,11.3306364 C35.2827981,11.3298264 41.2138611,11.3285304 47.1449241,11.3308794 C47.3170491,11.3309604 47.4962211,11.3452164 47.6598411,11.3939784 C48.0068451,11.4973344 48.1568571,11.7717624 48.1228371,12.1090464 C48.0882501,12.4507854 47.8684161,12.6675414 47.5172001,12.7153314 C47.3712381,12.7352574 47.2213881,12.7298304 47.0733201,12.7298304 C44.0673291,12.7305594 41.0613381,12.7303974 38.0553471,12.7303974" id="Fill-12" fill="#000000"></path>
                        <path d="M40.7554011,23.815053 C40.5856251,23.815053 40.4475201,23.953158 40.4475201,24.123015 L40.4475201,27.465966 C40.4475201,27.635823 40.5856251,27.773928 40.7554011,27.773928 L46.7741061,27.773928 C46.9438821,27.773928 47.0819871,27.635823 47.0819871,27.465966 L47.0819871,24.123015 C47.0819871,23.953158 46.9438821,23.815053 46.7741061,23.815053 L40.7554011,23.815053 Z M46.7741061,28.826928 L40.7554011,28.826928 C40.0050171,28.826928 39.3945201,28.216431 39.3945201,27.465966 L39.3945201,24.123015 C39.3945201,23.37255 40.0050171,22.762053 40.7554011,22.762053 L46.7741061,22.762053 C47.5244901,22.762053 48.1349871,23.37255 48.1349871,24.123015 L48.1349871,27.465966 C48.1349871,28.216431 47.5244901,28.826928 46.7741061,28.826928 L46.7741061,28.826928 Z" id="Fill-14" fill="#000000"></path>
                    </g>
                </g>
            </g>
        </g>
    </g>
</svg>