<?xml version="1.0" encoding="UTF-8"?>
<svg width="8px" height="22px" viewBox="0 0 8 22" version="1.1" xmlns="http://www.w3.org/2000/svg" xmlns:xlink="http://www.w3.org/1999/xlink">
    <title>Icons/Info</title>
    <defs>
        <path d="M5.22222222,17.9911111 L6.44807427,17.9911111 C7.12108427,17.9911111 7.66666667,18.4902124 7.66666667,19.1155556 C7.66666667,19.7365691 7.11295562,20.24 6.44807427,20.24 L1.55192573,20.24 C0.878915731,20.24 0.333333333,19.7408987 0.333333333,19.1155556 C0.333333333,18.494542 0.887044377,17.9911111 1.55192573,17.9911111 L2.77777778,17.9911111 L2.77777778,7.87111111 L1.56700643,7.87111111 C0.885667592,7.87111111 0.333333333,7.37200978 0.333333333,6.74666667 C0.333333333,6.12565315 0.875209437,5.62222222 1.56700643,5.62222222 L3.98854913,5.62222222 C4.66988796,5.62222222 5.22222222,6.12132356 5.22222222,6.74666667 L5.22222222,17.9911111 Z M5.22222222,1.68666667 C5.22222222,0.755146389 4.40141093,0 3.38888889,0 C2.37636685,0 1.55555556,0.755146389 1.55555556,1.68666667 C1.55555556,2.61818694 2.37636685,3.37333333 3.38888889,3.37333333 C4.40141093,3.37333333 5.22222222,2.61818694 5.22222222,1.68666667 Z" id="path-1"></path>
    </defs>
    <g id="Web" stroke="none" stroke-width="1" fill="none" fill-rule="evenodd">
        <g id="Inicio---MB-sin-KYC" transform="translate(-230.000000, -368.000000)">
            <g id="Group-6" transform="translate(197.000000, 347.000000)">
                <g id="Group-2" transform="translate(0.000000, 0.000000)">
                    <g id="Icons/Info" transform="translate(33.000000, 21.160000)">
                        <mask id="mask-2" fill="white">
                            <use xlink:href="#path-1"></use>
                        </mask>
                        <use id="Info-Icon" fill="#262628" xlink:href="#path-1"></use>
                        <g id="↳Tint/Backgroud" mask="url(#mask-2)" fill="#262628">
                            <g transform="translate(-7.000000, 0.000000)" id="Color">
                                <rect x="0" y="0" width="22" height="20.24"></rect>
                            </g>
                        </g>
                    </g>
                </g>
            </g>
        </g>
    </g>
</svg>