<?xml version="1.0" encoding="UTF-8"?>
<svg width="15px" height="15px" viewBox="0 0 15 15" version="1.1" xmlns="http://www.w3.org/2000/svg" xmlns:xlink="http://www.w3.org/1999/xlink">
    <title>Group 7</title>
    <g id="Web" stroke="none" stroke-width="1" fill="none" fill-rule="evenodd">
        <g id="Mis-préstamos---activos-1" transform="translate(-705.000000, -519.000000)" stroke="#FF4759">
            <g id="Group-4" transform="translate(655.000000, 223.000000)">
                <g id="Group" transform="translate(51.000000, 290.000000)">
                    <g id="Group-7" transform="translate(0.000000, 7.000000)">
                        <path d="M13,6.5 C13,10.0901224 10.0901224,13 6.5,13 C2.90987755,13 0,10.0901224 0,6.5 C0,2.90987755 2.90987755,0 6.5,0 C10.0901224,0 13,2.90987755 13,6.5 Z" id="Stroke-1" stroke-width="1.5"></path>
                        <line x1="6.5" y1="6" x2="6.5" y2="11" id="Stroke-3" stroke-width="1.5"></line>
                        <path d="M7,3.4998128 C7,3.77611382 6.7761976,4 6.5,4 C6.2238024,4 6,3.77611382 6,3.4998128 C6,3.22351179 6.2238024,3 6.5,3 C6.7761976,3 7,3.22351179 7,3.4998128" id="Fill-5" transform="translate(6.500000, 3.500000) scale(-1, -1) translate(-6.500000, -3.500000) "></path>
                    </g>
                </g>
            </g>
        </g>
    </g>
</svg>