<?xml version="1.0" encoding="UTF-8"?>
<svg width="48px" height="48px" viewBox="0 0 48 48" version="1.1" xmlns="http://www.w3.org/2000/svg" xmlns:xlink="http://www.w3.org/1999/xlink">
    <title>Shape</title>
    <g id="Web" stroke="none" stroke-width="1" fill="none" fill-rule="evenodd">
        <g id="Mis-préstamos---activos-3" transform="translate(-488.000000, -308.000000)" fill="#CBD5DC" fill-rule="nonzero">
            <g id="Group" transform="translate(389.000000, 308.000000)">
                <path d="M123,0 C109.7456,0 99,10.7456 99,24 C99,37.2544 109.7456,48 123,48 C136.2544,48 147,37.2544 147,24 C147,10.7456 136.2544,0 123,0 Z M120,34.1483871 L120,22.8516129 C120,21.2767106 121.343146,20 123,20 C124.656854,20 126,21.2767106 126,22.8516129 L126,34.1483871 C126,35.7232894 124.656854,37 123,37 C121.343146,37 120,35.7232894 120,34.1483871 L120,34.1483871 Z M123.500051,18 C122.084454,18 120.808246,17.1472648 120.26652,15.8394236 C119.724794,14.5315823 120.024235,13.0261919 121.025214,12.0252136 C122.026192,11.0242352 123.531582,10.7247945 124.839424,11.26652 C126.147265,11.8082456 127,13.084454 127,14.5000512 C127,16.4330195 125.43302,18 123.500051,18 Z" id="Shape"></path>
            </g>
        </g>
    </g>
</svg>