<?xml version="1.0" encoding="UTF-8"?>
<svg width="24px" height="15px" viewBox="0 0 24 15" version="1.1" xmlns="http://www.w3.org/2000/svg" xmlns:xlink="http://www.w3.org/1999/xlink">
    <title>Group</title>
    <g id="Web" stroke="none" stroke-width="1" fill="none" fill-rule="evenodd">
        <g id="Inicio---MB-sin-KYC" transform="translate(-223.000000, -555.000000)" fill="#000000" fill-rule="nonzero">
            <g id="Group-2" transform="translate(197.000000, 528.000000)">
                <g id="Group" transform="translate(26.000000, 27.000000)">
                    <path d="M0.790909093,0 C0.354120153,0 0,0.335803593 0,0.75 L0,14.2500025 C0,14.6641989 0.354120153,15 0.790909093,15 L22.4090909,15 C22.8458798,15 23.2,14.6641989 23.2,14.2500025 L23.2,0.75 C23.2,0.335803593 22.8458798,0 22.4090909,0 L0.790909093,0 L0.790909093,0 Z M3.03181814,1.5 L20.1681818,1.5 L11.6,8.0390525 L3.03181814,1.5 Z M1.58181813,2.3125 L11.1056818,9.5781275 C11.3946372,9.79747465 11.8053627,9.79747465 12.0943182,9.5781275 L21.6181818,2.3125 L21.6181818,13.5000025 L1.58181813,13.5000025 L1.58181813,2.3125 Z" id="Shape"></path>
                </g>
            </g>
        </g>
    </g>
</svg>