<?xml version="1.0" encoding="UTF-8"?>
<svg width="152px" height="23px" viewBox="0 0 152 23" version="1.1" xmlns="http://www.w3.org/2000/svg" xmlns:xlink="http://www.w3.org/1999/xlink">
    <title>Path</title>
    <g id="Web" stroke="none" stroke-width="1" fill="none" fill-rule="evenodd">
        <g id="Solicitar-préstamo" transform="translate(-270.000000, -219.000000)" fill="#BBDBCF" fill-rule="nonzero">
            <g id="Group-15" transform="translate(36.000000, 139.000000)">
                <g id="Group-12" transform="translate(127.000000, 70.000000)">
                    <g id="Group-9" transform="translate(107.000000, 0.000000)">
                        <path d="M36.4438643,31.7127248 C36.4438643,31.3596861 35.912842,31.0589495 36.6798742,30.8235904 C39.1120875,30.3267212 41.1575067,31.3989127 43.58972,30.9085812 L43.7339483,30.3267212 C45.6482509,30.4509385 47.6674468,30.6470711 49.680087,30.8105149 C53.3972431,30.516316 57.0881759,30.1567396 60.7725529,29.8037009 C60.6676596,29.6010306 60.6086571,29.4114358 60.9757837,29.3133695 C62.9378608,29.1477493 64.9075272,29.0888222 66.8760315,29.1368501 L67.8397387,28.9930196 C68.0166942,28.8976381 68.1399469,28.7265242 68.1740861,28.5288391 C69.1705724,28.5288391 70.0621654,28.5288391 70.8816442,28.5288391 C81.6463187,26.9270897 92.6011122,25.2207361 104.513057,23.6255244 C106.972449,23.0089928 109.462758,22.5223429 111.973593,22.1676055 C115.5793,21.8799444 120.188049,22.1676055 123.70853,22.2002943 C123.138173,20.1866664 131.719755,19.1079372 129.989016,17.0812338 C132.342559,17.0812338 135.889264,17.153149 136.05316,16.5778268 C136.590738,14.8649355 138.393591,12.8643831 144.660966,11.8314182 C147.112847,11.5960591 150.875894,12.3217496 151.741263,11.9752487 C153.104876,11.4260775 148.568241,10.7592267 149.931854,10.2165932 C131.647641,9.56935566 114.071459,10.5304053 95.7151319,11.0403501 C92.6011122,11.5699081 80.5187157,12.2563721 67.865962,13.0016759 C55.2132083,13.7469798 42.0097647,14.5315101 36.5946484,14.6753407 L35.6178296,14.7668692 C29.7175817,15.0414549 22.5651701,15.7148434 17.6417411,16.8589502 C15.3930911,17.5127255 13.1182177,18.2776425 10.8499002,19.0164086 C11.9512798,19.2648432 12.9739895,19.5132779 13.8590266,19.774788 C11.5054833,19.9186185 9.15194001,20.0624491 8.28001449,20.5004785 C3.35002962,21.8080291 6.27393022,22.553333 8.28001449,23.769355 C9.70918564,24.2531487 7.91944379,25.3253402 10.1353147,25.7633696 L6.20181608,26.018342 C6.07069946,26.600202 10.9810168,25.3188024 9.97797471,26.3452297 C8.45702193,26.2406256 6.81150836,26.7440326 5.25122059,26.8486366 C5.85435704,27.5743272 10.6728928,26.6786551 10.4958854,27.4631854 C9.66985065,27.6985445 6.03136448,26.8094101 5.81502205,27.7704598 C5.76913124,27.9665924 7.329419,27.8619883 8.10956289,27.8096863 C3.3893646,28.5092259 0.832590531,29.6271816 5.29055558,30.2809569 C3.7696028,30.385561 1.59306692,30.1632774 0,30.4313252 L0,30.4313252 C0.806367207,30.3920987 2.2027592,30.4705517 2.9435681,30.4313252 L0.20978659,30.6143823 C0.367126533,30.7385996 0.537578138,30.8497414 0.721141405,30.967421 C1.41607221,31.0355434 2.11519307,31.0508423 2.81245148,31.0131852 L0.996486305,31.1374025 C1.51882291,31.437541 2.06218034,31.6997309 2.62233238,31.9219329 C4.83164741,32.3468868 6.9688483,33.0725774 8.12923038,32.9941244 C17.5761828,32.660699 27.0428027,32.2422828 36.4438643,31.7127248 Z" id="Path"></path>
                    </g>
                </g>
            </g>
        </g>
    </g>
</svg>