<?xml version="1.0" encoding="UTF-8"?>
<svg width="15px" height="10px" viewBox="0 0 15 10" version="1.1" xmlns="http://www.w3.org/2000/svg" xmlns:xlink="http://www.w3.org/1999/xlink">
    <title>Group 2</title>
    <defs>
        <path d="M9.86335647,6.75387561 C9.58514077,7.10164523 9.64152537,7.6091066 9.989295,7.8873223 C10.3370646,8.165538 10.844526,8.1091534 11.1227417,7.76138378 L13.7032217,4.53578378 C13.9388315,4.24127146 13.9388315,3.82278793 13.7032217,3.52827561 L11.1227417,0.302675608 C10.844526,-0.0450940168 10.3370646,-0.101478614 9.989295,0.176737086 C9.64152537,0.454952786 9.58514077,0.962414156 9.86335647,1.31018378 L12.0408332,4.03202969 L9.86335647,6.75387561 Z" id="path-1"></path>
        <filter x="-35.8%" y="-18.6%" width="171.5%" height="137.2%" filterUnits="objectBoundingBox" id="filter-2">
            <feGaussianBlur stdDeviation="1" in="SourceAlpha" result="shadowBlurInner1"></feGaussianBlur>
            <feOffset dx="0" dy="1" in="shadowBlurInner1" result="shadowOffsetInner1"></feOffset>
            <feComposite in="shadowOffsetInner1" in2="SourceAlpha" operator="arithmetic" k2="-1" k3="1" result="shadowInnerInner1"></feComposite>
            <feColorMatrix values="0 0 0 0 0.665641047   0 0 0 0 0.733295948   0 0 0 0 0.869451993  0 0 0 0.542886801 0" type="matrix" in="shadowInnerInner1"></feColorMatrix>
        </filter>
        <path d="M5.02004678,6.75387561 C4.74183108,7.10164523 4.79821568,7.6091066 5.1459853,7.8873223 C5.49375493,8.165538 6.0012163,8.1091534 6.279432,7.76138378 L8.859912,4.53578378 C9.09552185,4.24127146 9.09552185,3.82278793 8.859912,3.52827561 L6.279432,0.302675608 C6.0012163,-0.0450940168 5.49375493,-0.101478614 5.1459853,0.176737086 C4.79821568,0.454952786 4.74183108,0.962414156 5.02004678,1.31018378 L7.19752351,4.03202969 L5.02004678,6.75387561 Z" id="path-3"></path>
        <filter x="-35.8%" y="-18.6%" width="171.5%" height="137.2%" filterUnits="objectBoundingBox" id="filter-4">
            <feGaussianBlur stdDeviation="1" in="SourceAlpha" result="shadowBlurInner1"></feGaussianBlur>
            <feOffset dx="0" dy="1" in="shadowBlurInner1" result="shadowOffsetInner1"></feOffset>
            <feComposite in="shadowOffsetInner1" in2="SourceAlpha" operator="arithmetic" k2="-1" k3="1" result="shadowInnerInner1"></feComposite>
            <feColorMatrix values="0 0 0 0 0.665641047   0 0 0 0 0.733295948   0 0 0 0 0.869451993  0 0 0 0.542886801 0" type="matrix" in="shadowInnerInner1"></feColorMatrix>
        </filter>
        <path d="M0.176737086,6.75387561 C-0.101478614,7.10164523 -0.0450940168,7.6091066 0.302675608,7.8873223 C0.650445232,8.165538 1.1579066,8.1091534 1.4361223,7.76138378 L4.0166023,4.53578378 C4.25221216,4.24127146 4.25221216,3.82278793 4.0166023,3.52827561 L1.4361223,0.302675608 C1.1579066,-0.0450940168 0.650445232,-0.101478614 0.302675608,0.176737086 C-0.0450940168,0.454952786 -0.101478614,0.962414156 0.176737086,1.31018378 L2.35421382,4.03202969 L0.176737086,6.75387561 Z" id="path-5"></path>
        <filter x="-35.8%" y="-18.6%" width="171.5%" height="137.2%" filterUnits="objectBoundingBox" id="filter-6">
            <feGaussianBlur stdDeviation="1" in="SourceAlpha" result="shadowBlurInner1"></feGaussianBlur>
            <feOffset dx="0" dy="1" in="shadowBlurInner1" result="shadowOffsetInner1"></feOffset>
            <feComposite in="shadowOffsetInner1" in2="SourceAlpha" operator="arithmetic" k2="-1" k3="1" result="shadowInnerInner1"></feComposite>
            <feColorMatrix values="0 0 0 0 0.665641047   0 0 0 0 0.733295948   0 0 0 0 0.869451993  0 0 0 0.542886801 0" type="matrix" in="shadowInnerInner1"></feColorMatrix>
        </filter>
    </defs>
    <g id="Web" stroke="none" stroke-width="1" fill="none" fill-rule="evenodd">
        <g id="Solicitar-préstamo" transform="translate(-375.000000, -420.000000)">
            <g id="Group-15" transform="translate(36.000000, 139.000000)">
                <g id="Group-12" transform="translate(127.000000, 70.000000)">
                    <g id="Group-3" transform="translate(0.000000, 43.000000)">
                        <g id="Group-8" transform="translate(0.000000, 154.000000)">
                            <g id="Circulo" transform="translate(119.600000, 19.200000) rotate(-270.000000) translate(-119.600000, -19.200000) translate(105.600000, -94.800000)">
                                <g id="Group-13" transform="translate(0.000000, 0.600000)">
                                    <g id="Group-2" transform="translate(13.946400, 13.505600) rotate(-90.000000) translate(-13.946400, -13.505600) translate(6.946400, 9.005600)">
                                        <g id="Path-4">
                                            <use fill="#ECF3F9" fill-rule="evenodd" xlink:href="#path-1"></use>
                                            <use fill="black" fill-opacity="1" filter="url(#filter-2)" xlink:href="#path-1"></use>
                                        </g>
                                        <g id="Path-4">
                                            <use fill="#ECF3F9" fill-rule="evenodd" xlink:href="#path-3"></use>
                                            <use fill="black" fill-opacity="1" filter="url(#filter-4)" xlink:href="#path-3"></use>
                                        </g>
                                        <g id="Path-4">
                                            <use fill="#ECF3F9" fill-rule="evenodd" xlink:href="#path-5"></use>
                                            <use fill="black" fill-opacity="1" filter="url(#filter-6)" xlink:href="#path-5"></use>
                                        </g>
                                    </g>
                                </g>
                            </g>
                        </g>
                    </g>
                </g>
            </g>
        </g>
    </g>
</svg>