<?xml version="1.0" encoding="utf-8"?>
<svg width="284px" height="99px" viewbox="0 0 284 99" version="1.1" xmlns:xlink="http://www.w3.org/1999/xlink" xmlns="http://www.w3.org/2000/svg">
  <g id="Logotipo-2">
    <path d="M49.6862 51.2595C45.6515 56.0685 39.9903 59.2963 33.7334 60.3551C21.8354 62.4502 9.87284 57.0171 3.80422 46.762C-0.937351 38.7312 -1.75822 29.0211 4.29026 21.5412C8.88062 15.8677 15.4637 12.4085 21.7336 8.82742C29.3644 4.52064 41.6666 -3.48902 50.6097 1.68124C52.9859 3.05856 54.6978 5.35233 55.8265 7.82091C62.0478 21.4087 59.4718 39.9072 49.6862 51.2595Z" transform="translate(14.400024 37.599976)" id="Path" fill="#E6E6E6" fill-rule="evenodd" stroke="none" />
    <path d="M27.9999 11.6494C27.9999 18.7787 22.5759 23.2034 13.9626 23.177L7.46665 23.177L7.46665 32L0 32L0.0906665 0L14.048 0.0370493C22.6399 0.021171 28.0213 4.47238 27.9999 11.6494ZM20.4426 11.6494C20.4426 8.12967 18.1546 6.0655 13.5946 6.05491L7.51465 6.05491L7.48265 17.1697L13.5626 17.1697C18.1226 17.1538 20.432 15.1002 20.4426 11.6282L20.4426 11.6494Z" transform="translate(25.599976 2.4000244)" id="Shape" fill="#59ADE0" stroke="none" />
    <path d="M16 6.7772e-05L16 6.54742C15.3806 6.50005 14.8939 6.45268 14.3408 6.45268C10.2316 6.45268 7.50501 8.55794 7.48842 13.2527L7.45524 24.8L0 24.8L0.0718977 0.342172L7.18977 0.342172L7.18977 3.56848C8.97615 1.20533 12.0346 -0.0104585 16 6.7772e-05Z" transform="translate(58.400024 9.599976)" id="Path" fill="#59ADE0" fill-rule="evenodd" stroke="none" />
    <path d="M26.2545 24.4278L7.30348 24.3741C7.99339 27.4833 10.6398 29.395 14.4613 29.4057C16.7997 29.5054 19.0757 28.6388 20.7514 27.0107L24.6052 31.1939C22.2713 33.8305 18.7732 35.216 14.2565 35.1999C5.59487 35.1999 -0.0214364 29.7333 0.000123352 22.312C0.0216831 14.8908 5.76196 9.47792 13.3995 9.4994C20.7567 9.4994 26.4216 14.4505 26.4 22.4785C26.4 23.037 26.303 23.8264 26.2545 24.4278ZM7.22263 20.1319L19.5817 20.1909C19.2208 17.1242 16.5501 14.8519 13.4534 14.9767C10.1278 14.966 7.72389 16.9582 7.22802 20.1533L7.22263 20.1319ZM14.7308 6.68019L9.04982 6.68019L15.3399 0L23.1607 0L14.7308 6.68019Z" transform="translate(75.99994 0)" id="Shape" fill="#59ADE0" stroke="none" />
    <path d="M0 22.906L2.4926 17.7539C5.18196 19.3233 8.25573 20.163 11.3932 20.1854C14.8232 20.1854 16.1137 19.3177 16.1137 17.9306C16.1137 13.8604 0.634179 17.9788 0.672781 8.03344C0.672781 3.31513 5.08446 0 12.5567 0C16.0806 0 19.9849 0.8087 22.4113 2.20116L19.9187 7.33185C17.6704 6.07897 15.1213 5.42495 12.5292 5.43596C9.22041 5.43596 7.76456 6.44282 7.75904 7.73353C7.75904 11.9912 23.2385 7.91562 23.1999 17.7218C23.1999 22.349 18.7496 25.6213 11.0678 25.5999C6.75539 25.6106 2.37679 24.4377 0 22.906Z" transform="translate(104 9.599976)" id="Path" fill="#59ADE0" fill-rule="evenodd" stroke="none" />
    <path d="M19.2 29.6215C17.6989 30.7064 15.4987 31.2054 13.239 31.2C7.2779 31.2 3.83675 28.1299 3.85301 22.1307L3.89636 11.7651L0 11.7651L0 6.14019L3.88552 6.14019L3.88552 0L11.1851 0L11.1851 6.14019L17.455 6.14019L17.455 11.7651L11.1851 11.7651L11.1688 22.071C11.1688 24.2407 12.3285 25.4015 14.2957 25.4069C15.3542 25.4238 16.39 25.0985 17.2491 24.4794L19.2 29.6215Z" transform="translate(128 4.800049)" id="Path" fill="#59ADE0" fill-rule="evenodd" stroke="none" />
    <path d="M23.2 11.0731L23.1632 25.2525L16.5414 25.2525L16.5414 22.1568C15.2181 24.4184 12.6765 25.6107 9.09521 25.6C3.38189 25.6 -0.0156449 22.3385 0.000108714 18.0452C0.000108714 13.6556 3.06157 10.6186 10.5025 10.64L16.1266 10.64C16.1266 7.54431 14.3254 5.73714 10.513 5.72644C7.98673 5.69821 5.51891 6.50077 3.47641 8.01482L0.950579 2.97291C3.65495 1.02672 7.57761 -0.0105309 11.4793 0.000162468C18.9202 0.0215491 23.221 3.545 23.2 11.0731ZM16.1056 17.3822L16.1056 14.8372L11.2535 14.8372C7.93995 14.8372 6.89495 16.0722 6.8897 17.7351C6.8897 19.5369 8.3758 20.7399 10.8754 20.7506C13.2384 20.7399 15.2811 19.6385 16.1056 17.3768L16.1056 17.3822Z" transform="translate(149.59995 9.599976)" id="Shape" fill="#59ADE0" stroke="none" />
    <path d="M41.5997 10.8533L41.5626 24.8L34.4335 24.8L34.4653 11.9019C34.4653 7.96431 32.6976 6.13446 29.8184 6.13446C26.6429 6.13446 24.3723 8.15831 24.3617 12.5049L24.3247 24.7318L17.1956 24.7318L17.2326 11.8704C17.2326 7.93285 15.5549 6.103 12.5858 6.103C9.41021 6.103 7.18732 8.12685 7.17145 12.4734L7.1344 24.7004L0 24.7004L0.0688035 0.33556L6.88035 0.33556L6.88035 3.14588C8.71688 1.04863 11.4584 0 14.6128 0C18.0424 0 20.9639 1.33175 22.6946 4.00575C24.6687 1.52051 27.8707 0.0367019 31.5755 0.0471882C37.408 0.0367019 41.642 3.40279 41.5997 10.8533Z" transform="translate(180 9.599976)" id="Path" fill="#59ADE0" fill-rule="evenodd" stroke="none" />
    <path d="M0.000358782 12.7573C0.000358782 5.26887 5.78663 -0.0265436 13.6615 0.000200934C21.5364 0.0269454 27.2214 5.3491 27.2001 12.8376C27.1788 20.326 21.4565 25.6214 13.5869 25.6C5.71737 25.5786 -0.0369377 20.2404 0.000358782 12.7573ZM19.9273 12.8162C19.9273 8.53704 17.2313 5.92678 13.6402 5.91608C10.0491 5.90539 7.28382 8.48356 7.24652 12.7841C7.20923 17.0846 9.99048 19.6788 13.5763 19.6842C17.162 19.6895 19.9167 17.1113 19.9273 12.8108L19.9273 12.8162Z" transform="translate(226.39984 9.5998535)" id="Shape" fill="#59ADE0" stroke="none" />
    <path d="M0 22.9035L2.49142 17.7354C5.1795 19.3031 8.2518 20.1419 11.3878 20.1643C14.8162 20.1643 16.106 19.2976 16.106 17.9119C16.106 13.8459 0.633878 17.9601 0.672462 8.02505C0.672462 3.31167 5.08205 0 12.5508 0C16.0729 0 19.9754 0.807855 22.4007 2.19886L19.9093 7.32419C17.6626 6.08378 15.1189 5.43977 12.5342 5.45703C9.22706 5.45703 7.77189 6.46284 7.76638 7.75219C7.76638 12.0055 23.2385 7.93409 23.1999 17.73C23.1999 22.3524 18.7518 25.6213 11.0736 25.5999C6.75218 25.6052 2.37566 24.4336 0 22.9035Z" transform="translate(255.20001 9.599976)" id="Path" fill="#59ADE0" fill-rule="evenodd" stroke="none" />
    <path d="M26.4 12.4151L26.4 28.3804L18.8686 28.3804L18.8686 24.8948C17.3719 27.4445 14.4802 28.8 10.3964 28.8C3.88597 28.8 0.00534521 25.1691 0 20.3332C0 15.3952 3.45301 11.9579 11.9305 11.9525L18.3448 11.9525C18.3448 8.46683 16.2708 6.44427 11.9305 6.44427C9.04826 6.42094 6.23577 7.33609 3.91269 9.05316L1.02094 3.38891C4.06771 1.20497 8.56303 4.37598e-05 13.0102 4.37598e-05C21.4931 -0.0107145 26.3947 3.93758 26.4 12.4151ZM18.3448 19.5479L18.3448 16.6862L12.8125 16.6862C9.03875 16.6862 7.85212 18.0955 7.85212 19.9675C7.85212 21.9954 9.56258 23.3456 12.4009 23.3456C15.0788 23.3456 17.42 22.0922 18.3448 19.5479Z" transform="translate(25.599976 54.400024)" id="Shape" fill="#4BA6DE" stroke="none" />
    <path d="M0 0L7.9683 0L8 38.4L0.0317041 38.4L0 0Z" transform="translate(59.200012 44)" id="Path" fill="#4BA6DE" fill-rule="evenodd" stroke="none" />
    <path d="M0 2.13001C0 0.953638 1.09656 0 2.44924 0C3.76172 0.0235418 4.80897 0.959689 4.79994 2.10131C4.79092 3.24294 3.72897 4.16648 2.41624 4.17433C1.10352 4.18217 0.0270701 3.27142 0 2.13001ZM0.955203 10.7246L3.90041 10.7246L3.90041 37.6L0.942957 37.6L0.955203 10.7246Z" transform="translate(75.20001 44.80005)" id="Shape" fill="#4BA6DE" stroke="none" />
    <path d="M24 11.4096L24 27.184L21.432 27.184L21.432 11.6182C21.432 5.51489 18.1834 2.3108 12.739 2.31615C6.41737 2.31615 2.56269 6.40818 2.56801 12.8217L2.56801 27.2L0 27.2L0 0.203265L2.46699 0.203265L2.46699 6.06049C4.26407 2.28405 8.01241 0.00534907 13.1006 0C19.619 0 23.9947 3.87807 24 11.4096Z" transform="translate(90.400024 55.19995)" id="Path" fill="#4BA6DE" fill-rule="evenodd" stroke="none" />
    <path d="M0 23.7662L1.19521 21.7122C3.27876 23.453 6.97747 24.9391 10.9831 24.9391C16.7115 24.9391 18.9996 22.9329 18.9942 19.9024C18.9942 12.1007 0.97986 17.8644 0.974477 7.34533C0.974477 3.29054 4.40399 0.00530732 11.2738 0C14.7087 0 18.4558 1.019 20.5932 2.6112L19.398 4.66513C16.9938 3.0452 14.1369 2.20477 11.2253 2.26092C5.91685 2.26092 3.57488 4.421 3.58026 7.29756C3.58026 15.3541 21.5946 9.6434 21.6 19.8547C21.6 24.2173 17.8313 27.1947 10.8861 27.2C6.41755 27.2 2.11047 25.714 0 23.7662Z" transform="translate(120.79999 55.19995)" id="Path" fill="#4BA6DE" fill-rule="evenodd" stroke="none" />
    <path d="M17.6 30.8962C16.2758 32.1795 14.1338 32.7947 12.1448 32.8C7.4494 32.8 4.9012 30.0371 4.89592 25.5241L4.89592 8.02367L0 8.02367L0 5.83347L4.89592 5.83347L4.89592 0L7.44412 0L7.44412 5.83347L15.8854 5.83347L15.8854 8.03958L7.44412 8.03958L7.44412 25.2642C7.44412 28.7007 9.13237 30.5939 12.3981 30.5674C13.9111 30.6016 15.3829 30.0707 16.529 29.0772L17.6 30.8962Z" transform="translate(145.6 49.599976)" id="Path" fill="#4BA6DE" fill-rule="evenodd" stroke="none" />
    <path d="M22.4 9.99957L22.4 26.9929L19.865 26.9929L19.865 22.2135C18.1221 25.2989 14.7458 27.2 9.93795 27.2C3.75883 27.2 0.00546341 24.1253 0 19.5583C0 15.5012 2.63337 12.06 10.2931 12.0547L19.7502 12.0547L19.7502 9.89867C19.7502 4.9175 16.942 2.25167 11.5551 2.25698C8.06609 2.22583 4.68549 3.43445 2.04878 5.65565L0.743024 3.80762C3.47473 1.44448 7.50127 0.00536009 11.7791 4.96701e-05C18.592 -0.0105712 22.3945 3.37748 22.4 9.99957ZM19.7666 19.091L19.7666 14.0355L10.3641 14.0355C4.66029 14.0355 2.65522 16.3508 2.65522 19.4309C2.65522 22.9198 5.45795 25.0759 10.304 25.0705C14.9479 25.1024 18.1877 22.9411 19.7721 19.091L19.7666 19.091Z" transform="translate(168 55.19995)" id="Shape" fill="#4BA6DE" stroke="none" />
    <path d="M24 11.4189L24 27.184L21.4415 27.184L21.4415 11.6274C21.4415 5.52767 18.1915 2.32547 12.7447 2.33082C6.42021 2.33082 2.56915 6.42044 2.56915 12.8302L2.56915 27.2L0 27.2L0 0.219182L2.46809 0.219182L2.46809 6.05692C4.26596 2.2827 8.01596 0.00534591 13.1064 0C19.6223 0 23.9947 3.87579 24 11.4189Z" transform="translate(200 55.19995)" id="Path" fill="#4BA6DE" fill-rule="evenodd" stroke="none" />
    <path d="M17.6 30.8971C16.277 32.1798 14.1369 32.7947 12.1497 32.8C7.45852 32.8 4.91261 30.0384 4.90734 25.5276L4.90734 8.03568L0 8.03568L0 5.83064L4.89152 5.83064L4.89152 0L7.43744 0L7.43744 5.83064L15.8711 5.83064L15.8711 8.04098L7.43744 8.04098L7.43744 25.2573C7.43744 28.692 9.12417 30.5844 12.3869 30.5579C13.8985 30.5916 15.3689 30.0609 16.5142 29.0684L17.6 30.8971Z" transform="translate(231.20001 49.599976)" id="Path" fill="#4BA6DE" fill-rule="evenodd" stroke="none" />
    <path d="M25.5522 14.2264L2.48188 14.2264C2.74229 20.5964 7.42437 24.8962 13.8443 24.8909C17.235 24.8909 20.3705 23.654 22.4219 21.1379L23.9153 22.8312C21.5557 25.7084 17.8568 27.2 13.8177 27.2C5.69716 27.2 0 21.5678 0 13.6106C0 5.6534 5.48458 0.00531595 12.8345 7.59309e-06C20.1845 -0.00530076 25.6 5.55254 25.6 13.5098C25.6 13.7168 25.5522 13.9716 25.5522 14.2264ZM2.52971 12.2464L23.0809 12.2464C22.7142 6.44966 18.4998 2.29322 12.7973 2.29852C7.09487 2.30383 2.93892 6.39657 2.53502 12.2464L2.52971 12.2464Z" transform="translate(252 55.19995)" id="Shape" fill="#4BA6DE" stroke="none" />
    <path d="M2.88973 27.8177C-3.4182 26.01 2.25621 11.05 4.36978 8.12372C6.19139 5.598 8.46249 3.40788 11.0764 1.65625C13.4576 0.124201 17.7721 -0.930739 20.1369 1.20565C23.8834 4.59312 19.5907 9.83601 16.6798 12.0148C13.8325 14.1466 11.5455 16.9024 10.006 20.0567C8.79353 22.5324 8.49315 27.6163 4.95961 27.9608C4.26661 28.0436 3.56366 27.995 2.88973 27.8177Z" transform="translate(0 43.19995)" id="Path" fill="#E6E6E6" fill-rule="evenodd" stroke="none" />
    <path d="M0.567092 0.528886C-0.530093 2.06208 0.138922 3.08602 1.1023 4.37543C1.8409 5.36144 3.27526 7.33347 4.47949 7.84815C6.08513 8.53077 6.62034 6.76461 6.32062 5.48063C5.81217 3.16187 3.16822 -1.584 0.567092 0.528886" transform="translate(276.8 3.1999512)" id="Path" fill="#30C5F4" fill-rule="evenodd" stroke="none" />
  </g>
</svg>