<svg xmlns="http://www.w3.org/2000/svg" viewBox="0 0 140.23 27.55"><defs><style>.cls-1{fill:#fff;}.cls-2{font-size:9.73px;fill:#313742;font-family:Poppins-SemiBold, Poppins;font-weight:600;}.cls-3{fill:#3b5998;}</style></defs><g id="Capa_2" data-name="Capa 2"><g id="Capa_1-2" data-name="Capa 1"><rect class="cls-1" width="140.23" height="27.55" rx="5.69"/><text class="cls-2" transform="translate(28.07 17.28)">Facebook/KEOLATAM</text><path class="cls-3" d="M16.2,5.22a8.56,8.56,0,1,0,8.56,8.56A8.55,8.55,0,0,0,16.2,5.22Zm3.14,4.39v.06h-.15c-.41,0-.83,0-1.24,0a.76.76,0,0,0-.77.82c0,.56,0,1.12,0,1.68a.15.15,0,0,0,0,.06h2c-.1.74-.18,1.46-.27,2.19H17.17V20H15v-5.5H13.18v-2.2H15V12.1c0-.6,0-1.21,0-1.81A2.8,2.8,0,0,1,15.7,8.4a2.37,2.37,0,0,1,1.2-.68,4.46,4.46,0,0,1,1.31-.09l1,.06c.07,0,.1,0,.1.11C19.34,8.4,19.35,9,19.34,9.61Z"/></g></g></svg>