<svg xmlns="http://www.w3.org/2000/svg" xmlns:xlink="http://www.w3.org/1999/xlink" viewBox="0 0 140.23 27.55"><defs><style>.cls-1{fill:url(#Degradado_sin_nombre_8);}.cls-2{font-size:9.73px;font-family:Poppins-SemiBold, Poppins;font-weight:600;}.cls-2,.cls-3{fill:#fff;}</style><linearGradient id="Degradado_sin_nombre_8" y1="13.78" x2="140.23" y2="13.78" gradientUnits="userSpaceOnUse"><stop offset="0" stop-color="#f30008"/><stop offset="1" stop-color="#bb00ae"/></linearGradient></defs><g id="Capa_2" data-name="Capa 2"><g id="Capa_1-2" data-name="Capa 1"><rect class="cls-1" width="140.23" height="27.55" rx="5.69"/><text class="cls-2" transform="translate(49.86 16.5)">@keolatam</text><path class="cls-3" d="M40.41,6.21H30.73a2.42,2.42,0,0,0-2.42,2.42v9.68a2.42,2.42,0,0,0,2.42,2.42h9.68a2.42,2.42,0,0,0,2.42-2.42V8.63A2.42,2.42,0,0,0,40.41,6.21Zm1.21,12.1a1.21,1.21,0,0,1-1.21,1.21H30.73a1.21,1.21,0,0,1-1.21-1.21V8.63a1.21,1.21,0,0,1,1.21-1.21h9.68a1.21,1.21,0,0,1,1.21,1.21Z"/><path class="cls-3" d="M35.57,9.84a3.63,3.63,0,1,0,3.63,3.63A3.63,3.63,0,0,0,35.57,9.84Zm0,6.05A2.42,2.42,0,1,1,38,13.47,2.42,2.42,0,0,1,35.57,15.89Z"/><circle class="cls-3" cx="39.5" cy="9.54" r="0.91"/></g></g></svg>